<!--
  coffee.svg — hand-authored
  Source: original; designed to match Heroicons solid 24-grid weight.
  License: MIT — © 2026 city-pin-map authors.
  Notes: coffee cup with handle, single filled shape for SDF tinting.
-->
<svg xmlns="http://www.w3.org/2000/svg" viewBox="0 0 24 24" fill="currentColor" width="128" height="128">
  <path fill-rule="evenodd" d="M3 8.5a1.5 1.5 0 0 1 1.5-1.5h11A1.5 1.5 0 0 1 17 8.5v1H18a3 3 0 0 1 0 6h-1.06a5.5 5.5 0 0 1-5.44 4.5h-3A5.5 5.5 0 0 1 3 14.5v-6Zm14 5.5h1a1.5 1.5 0 0 0 0-3h-1V14ZM7 4a.75.75 0 0 1 .75-.75h.5a.75.75 0 0 1 0 1.5h-.5A.75.75 0 0 1 7 4Zm3 0a.75.75 0 0 1 .75-.75h.5a.75.75 0 0 1 0 1.5h-.5A.75.75 0 0 1 10 4Zm3 0a.75.75 0 0 1 .75-.75h.5a.75.75 0 0 1 0 1.5h-.5A.75.75 0 0 1 13 4Z" clip-rule="evenodd"/>
</svg>
