<?xml version="1.0" encoding="UTF-8"?>
<!--
  flag (solid 24) — milestone / "been there" marker.
  Source: https://github.com/tailwindlabs/heroicons/blob/master/optimized/24/solid/flag.svg
  © Tailwind Labs / Refactoring UI Inc. MIT License.
-->
<svg xmlns="http://www.w3.org/2000/svg" width="128" height="128" viewBox="0 0 24 24" fill="currentColor">
  <path fill-rule="evenodd" d="M3 2.25a.75.75 0 0 1 .75.75v.54l1.838-.46a9.75 9.75 0 0 1 6.725.738l.108.054A8.25 8.25 0 0 0 18 4.524l3.11-.732a.75.75 0 0 1 .917.81 47.784 47.784 0 0 0 .005 10.337.75.75 0 0 1-.574.812l-3.114.733a9.75 9.75 0 0 1-6.594-.77l-.108-.054a8.25 8.25 0 0 0-5.69-.625l-2.202.55V21a.75.75 0 0 1-1.5 0V3A.75.75 0 0 1 3 2.25Z" clip-rule="evenodd"/>
</svg>
