<!--
  tree.svg — hand-authored
  Source: original; designed to match Heroicons solid 24-grid weight.
  License: MIT — © 2026 city-pin-map authors.
  Notes: stylized pine tree silhouette, single filled shape for SDF tinting.
-->
<svg xmlns="http://www.w3.org/2000/svg" viewBox="0 0 24 24" fill="currentColor" width="128" height="128">
  <path fill-rule="evenodd" d="M12 2.25a.75.75 0 0 1 .65.376l4.5 7.75a.75.75 0 0 1-.65 1.124h-1.69l3.84 5.62a.75.75 0 0 1-.62 1.18h-4.28V21a.75.75 0 0 1-1.5 0v-2.7H7.97a.75.75 0 0 1-.62-1.18l3.84-5.62H9.5a.75.75 0 0 1-.65-1.124l4.5-7.75A.75.75 0 0 1 12 2.25Z" clip-rule="evenodd"/>
</svg>
